<svg xmlns="http://www.w3.org/2000/svg" x="0px" y="0px"
width="52" height="52"
viewBox="0 0 172 172"
style=" fill:#000000;"><g fill="none" fill-rule="nonzero" stroke="none" stroke-width="1" stroke-linecap="butt" stroke-linejoin="miter" stroke-miterlimit="10" stroke-dasharray="" stroke-dashoffset="0" font-family="none" font-weight="none" font-size="none" text-anchor="none" style="mix-blend-mode: normal"><path d="M0,172v-172h172v172z" fill="none"></path><g fill="#46b3e6"><path d="M66.15385,6.61538c-10.87921,0 -19.84615,8.96695 -19.84615,19.84615v13.23077h13.23077v-13.23077c0,-3.72115 2.89423,-6.61538 6.61538,-6.61538h39.69231c3.72115,0 6.61538,2.89423 6.61538,6.61538v13.23077h13.23077v-13.23077c0,-10.87921 -8.96695,-19.84615 -19.84615,-19.84615zM19.84615,46.30769c-10.95673,0 -19.84615,8.88942 -19.84615,19.84615v79.38462c0,10.95673 8.88942,19.84615 19.84615,19.84615h132.30769c10.95673,0 19.84615,-8.88942 19.84615,-19.84615v-79.38462c0,-10.95673 -8.88942,-19.84615 -19.84615,-19.84615zM86,65.53365c22.27524,0 40.3125,18.01142 40.3125,40.3125c0,22.30108 -18.03726,40.3125 -40.3125,40.3125c-22.27524,0 -40.3125,-18.01142 -40.3125,-40.3125c0,-22.30108 18.03726,-40.3125 40.3125,-40.3125zM79.38462,86v13.23077h-13.23077v13.23077h13.23077v13.23077h13.23077v-13.23077h13.23077v-13.23077h-13.23077v-13.23077z"></path></g></g></svg>